HIERARCHY
ROOT Hips
{
	OFFSET	0.00	0.00	0.00
	CHANNELS 6 Xposition Yposition Zposition Zrotation Xrotation Yrotation
	JOINT LeftUpperLeg
	{
		OFFSET	 0.100000	-0.066564	-0.000554
		CHANNELS 3 Zrotation Xrotation Yrotation
		JOINT LeftLowerLeg
		{
			OFFSET	 0.002447	-0.463436	-0.005172
			CHANNELS 3 Zrotation Xrotation Yrotation
			JOINT LeftFoot
			{
				OFFSET	-0.002447	-0.420480	-0.020576
				CHANNELS 3 Zrotation Xrotation Yrotation
				JOINT LeftToes
				{
					OFFSET	 0.003734	-0.104922	 0.126407
					CHANNELS 3 Zrotation Xrotation Yrotation
					End Site
					{
						OFFSET	 0.000000	 0.000000	 0.059955
					}
				}
			}
		}
	}
	JOINT RightUpperLeg
	{
		OFFSET	-0.100000	-0.066564	-0.000554
		CHANNELS 3 Zrotation Xrotation Yrotation
		JOINT RightLowerLeg
		{
			OFFSET	-0.002447	-0.463436	-0.005146
			CHANNELS 3 Zrotation Xrotation Yrotation
			JOINT RightFoot
			{
				OFFSET	 0.002447	-0.420479	-0.020602
				CHANNELS 3 Zrotation Xrotation Yrotation
				JOINT RightToes
				{
					OFFSET	-0.003734	-0.104922	 0.126407
					CHANNELS 3 Zrotation Xrotation Yrotation
					End Site
					{
						OFFSET	-0.000000	 0.000000	 0.059955
					}
				}
			}
		}
	}
	JOINT Spine
	{
		OFFSET	 0.000000	 0.099235	-0.012273
		CHANNELS 3 Zrotation Xrotation Yrotation
		JOINT Chest
		{
			OFFSET	-0.000001	 0.116455	-0.014223
			CHANNELS 3 Zrotation Xrotation Yrotation
			JOINT UpperChest
			{
				OFFSET	 0.000001	 0.133602	-0.016265
				CHANNELS 3 Zrotation Xrotation Yrotation
				JOINT LeftShoulder
				{
					OFFSET	 0.061058	 0.091105	 0.007056
					CHANNELS 3 Zrotation Xrotation Yrotation
					JOINT LeftUpperArm
					{
						OFFSET	 0.133942	-0.002659	-0.026009
						CHANNELS 3 Zrotation Xrotation Yrotation
						JOINT LeftLowerArm
						{
							OFFSET	 0.274047	 0.000000	 0.000000
							CHANNELS 3 Zrotation Xrotation Yrotation
							JOINT LeftHand
							{
								OFFSET	 0.276145	 0.000000	 0.000000
								CHANNELS 3 Zrotation Xrotation Yrotation
								End Site
								{
									OFFSET	 0.165687	 0.000000	 0.000000
								}
							}
						}
					}
				}
				JOINT Neck
				{
					OFFSET	 0.000000	 0.150325	 0.007929
					CHANNELS 3 Zrotation Xrotation Yrotation
					JOINT Head
					{
						OFFSET	 0.000000	 0.103218	 0.031424
						CHANNELS 3 Zrotation Xrotation Yrotation
						End Site
						{
							OFFSET	 0.000000	 0.061931	 0.018855
						}
					}
				}
				JOINT RightShoulder
				{
					OFFSET	-0.061057	 0.091105	 0.007056
					CHANNELS 3 Zrotation Xrotation Yrotation
					JOINT RightUpperArm
					{
						OFFSET	-0.133943	-0.002660	-0.026009
						CHANNELS 3 Zrotation Xrotation Yrotation
						JOINT RightLowerArm
						{
							OFFSET	-0.274047	 0.000000	 0.000000
							CHANNELS 3 Zrotation Xrotation Yrotation
							JOINT RightHand
							{
								OFFSET	-0.276145	 0.000000	 0.000000
								CHANNELS 3 Zrotation Xrotation Yrotation
								End Site
								{
									OFFSET	-0.165687	 0.000000	 0.000000
								}
							}
						}
					}
				}
			}
		}
	}
}
MOTION
Frames:    9
Frame Time: 0.03333334
-0.000620	 1.062340	-0.701010	-2.911671	 3.933814	 10.548370	 1.853443	-5.494929	-8.072062	 0.046040	 9.823652	-0.011992	 0.765563	-6.822820	 15.423140	 0.000127	-0.712597	 0.099356	-10.002600	-1.738350	-11.229790	 0.132236	 25.265240	-0.023054	-4.076634	 13.460860	-13.819350	 0.000667	-22.066060	 0.001276	 0.694157	 0.817354	-0.860235	-0.000000	 0.000000	 0.000000	 1.401596	 1.626392	-1.733430	 1.661448	-0.427159	 15.284570	-80.552710	-0.053887	-1.050514	-13.120800	 4.266026	-27.769480	 37.525100	 28.577390	-34.010940	 5.703372	-2.406897	-1.826383	 6.244299	-2.439818	-2.332643	 2.866701	 4.250940	-15.146830	 74.661900	 8.139187	 28.541510	 13.534820	 26.930580	 36.797210	-25.545200	 3.046628	 6.757327
 0.003590	 1.062820	-0.695660	-3.552788	 3.665665	 10.790970	 2.373702	-4.950279	-7.973300	 0.047467	 9.734175	-0.010675	 0.907759	-7.160746	 15.023360	-0.000180	-0.794527	 0.094578	-10.593520	 0.812970	-12.093610	 0.220372	 24.208670	-0.043831	-2.616144	 11.600990	-15.263610	-0.000084	-7.710550	 0.000222	 0.686373	 0.952862	-0.839124	-0.000000	 0.000000	 0.000000	 1.387637	 1.900300	-1.692312	 2.308609	-0.214211	 14.692280	-80.663300	 0.059488	-0.117182	-11.191830	 3.183809	-26.917800	 38.932530	 27.201510	-34.814650	 6.680185	-2.115255	-2.671589	 6.702333	-2.390313	-2.680596	 3.597876	 4.261549	-15.576820	 73.691940	 9.353562	 29.281960	 13.295500	 29.137860	 37.008350	-25.505790	 3.140881	 8.018795
 0.007530	 1.062820	-0.691360	-3.959549	 3.818084	 10.929700	 2.622571	-5.141535	-6.788705	 0.104807	 10.253130	-0.016231	 0.785751	-7.798950	 13.693070	-0.000779	-0.629972	 0.070475	-10.985140	 1.448982	-12.860100	 0.267337	 23.242630	-0.048825	-1.707393	 6.581447	-18.666990	 0.000638	 0.451353	-0.000525	 0.652416	 0.962316	-0.801090	-0.000000	 0.000000	 0.000000	 1.321078	 1.916397	-1.616051	 2.331454	-0.449698	 14.783790	-80.923450	-0.041517	 0.669186	-9.520193	 2.040816	-26.110990	 39.341560	 25.856180	-34.234280	 6.950889	-1.969962	-3.222627	 7.016817	-1.994226	-3.294294	 3.282604	 3.660081	-14.827630	 72.719350	 10.298160	 30.468990	 13.320690	 30.904770	 37.006650	-25.129160	 4.019910	 9.382360
 0.007530	 1.062820	-0.691360	-3.959549	 3.818084	 10.929700	 2.622571	-5.141535	-6.788705	 0.104807	 10.253130	-0.016231	 0.785751	-7.798950	 13.693070	-0.000779	-0.629972	 0.070475	-10.985140	 1.448982	-12.860100	 0.267337	 23.242630	-0.048825	-1.707393	 6.581447	-18.666990	 0.000638	 0.451353	-0.000525	 0.652416	 0.962316	-0.801090	-0.000000	 0.000000	 0.000000	 1.321078	 1.916397	-1.616051	 2.331454	-0.449698	 14.783790	-80.923450	-0.041517	 0.669186	-9.520193	 2.040816	-26.110990	 39.341560	 25.856180	-34.234280	 6.950889	-1.969962	-3.222627	 7.016817	-1.994226	-3.294294	 3.282604	 3.660081	-14.827630	 72.719350	 10.298160	 30.468990	 13.320690	 30.904770	 37.006650	-25.129160	 4.019910	 9.382360
 0.013520	 1.057340	-0.685330	-4.309322	 4.247825	 11.730430	 2.258176	-8.144996	-6.604632	 0.150925	 16.033250	-0.031812	 0.863279	-11.048140	 12.832300	 0.000319	-0.866459	 0.057491	-10.599430	 3.663895	-16.805070	 0.374033	 15.737130	-0.041364	-1.157426	 2.522323	-19.564990	 0.000713	-0.071095	 0.000374	 0.617830	 0.953741	-0.748522	-0.000000	 0.000000	 0.000000	 1.252054	 1.900306	-1.511160	 2.248839	-0.400528	 15.033740	-80.650410	-0.395160	 0.544582	-7.861745	-0.067794	-23.253010	 39.260780	 24.103630	-33.018680	 7.472566	-1.900883	-3.961630	 7.494131	-1.950313	-4.063220	 3.379040	 3.704146	-13.719460	 70.331900	 11.247440	 33.158390	 12.302900	 35.199390	 38.293250	-23.220760	 5.821642	 11.104680
 0.013520	 1.057340	-0.685330	-4.309322	 4.247825	 11.730430	 2.258176	-8.144996	-6.604632	 0.150925	 16.033250	-0.031812	 0.863279	-11.048140	 12.832300	 0.000319	-0.866459	 0.057491	-10.599430	 3.663895	-16.805070	 0.374033	 15.737130	-0.041364	-1.157426	 2.522323	-19.564990	 0.000713	-0.071095	 0.000374	 0.617830	 0.953741	-0.748522	-0.000000	 0.000000	 0.000000	 1.252054	 1.900306	-1.511160	 2.248839	-0.400528	 15.033740	-80.650410	-0.395160	 0.544582	-7.861745	-0.067794	-23.253010	 39.260780	 24.103630	-33.018680	 7.472566	-1.900883	-3.961630	 7.494131	-1.950313	-4.063220	 3.379040	 3.704146	-13.719460	 70.331900	 11.247440	 33.158390	 12.302900	 35.199390	 38.293250	-23.220760	 5.821642	 11.104680
 0.014020	 1.051570	-0.683960	-4.421905	 4.448663	 12.334380	 1.938100	-10.632920	-7.275553	 0.153717	 20.683600	-0.038265	 0.781632	-13.392140	 12.885460	 0.000747	-0.969934	 0.050436	-9.828609	 6.036526	-24.150040	 0.050785	 8.752083	 0.002110	-1.590033	 2.126342	-13.682540	 0.000334	-0.148077	-0.000958	 0.608937	 1.111488	-0.617138	-0.000000	 0.000000	 0.000000	 1.233640	 2.218889	-1.246766	 2.155804	-0.390765	 15.341260	-80.504660	-0.524006	 0.138711	-6.716805	-0.605288	-21.374570	 39.791990	 23.072980	-32.974930	 7.818363	-1.886626	-4.299611	 7.836729	-2.237614	-4.516892	 3.222833	 3.825203	-12.760060	 68.533650	 12.102990	 34.724760	 11.671060	 35.954870	 39.124040	-21.975190	 7.265382	 11.847390
 0.013870	 1.046400	-0.683270	-4.484995	 4.518867	 12.809900	 1.705371	-12.386080	-7.762741	 0.149421	 24.056080	-0.039540	 0.745496	-15.022020	 12.807970	-0.000882	-1.213091	 0.052013	-8.941787	 7.556521	-29.215290	 0.030955	 4.138479	 0.001389	-1.367880	 1.810553	-9.360101	 0.000869	-0.144225	 0.000865	 0.635395	 1.270129	-0.480283	-0.000000	 0.000000	 0.000000	 1.282936	 2.537005	-0.975835	 2.126075	-0.649569	 15.521720	-80.400540	-0.468353	-0.156899	-5.875493	-0.845785	-20.084070	 40.450210	 22.463920	-33.264310	 8.114399	-2.029699	-4.689048	 8.061761	-2.384630	-4.915710	 2.354461	 3.369136	-11.101700	 67.934900	 12.077220	 35.040380	 10.217920	 37.253340	 39.986000	-21.024440	 8.137705	 11.844000
 0.012750	 1.039640	-0.682610	-4.635688	 4.579497	 13.521650	 1.586503	-14.316880	-7.999801	 0.201882	 27.715090	-0.052688	 0.764918	-17.032670	 12.323830	 0.000875	-1.041096	 0.060888	-7.804122	 8.513000	-35.137630	-0.003934	 0.644655	 0.000101	-0.487599	 0.845680	-4.028423	 0.000129	-0.093561	-0.000505	 0.696155	 1.425702	-0.296379	-0.000000	 0.000000	 0.000000	 1.403393	 2.850577	-0.611509	 2.169967	-0.990819	 15.931400	-80.267420	-0.270990	-0.174758	-5.185370	-1.014717	-18.803820	 41.650590	 21.730120	-33.772900	 8.509823	-2.260817	-5.043289	 8.379619	-2.628315	-5.364447	 2.380099	 3.305961	-9.863626	 65.822980	 12.823080	 35.826270	 9.160008	 35.634170	 40.179820	-18.785090	 6.514233	 10.957920
